<svg width="24" height="24" viewBox="0 0 24 24" fill="none" xmlns="http://www.w3.org/2000/svg">
<g clip-path="url(#clip0_286_93)">
<path opacity="0.85" fill-rule="evenodd" clip-rule="evenodd" d="M10.8783 0.0514286C11.2486 0.0171429 11.6223 0 11.9994 0C14.099 9.43995e-05 16.1618 0.551066 17.9818 1.59788C19.8019 2.6447 21.3154 4.15073 22.3712 5.96553C23.427 7.78034 23.9882 9.84041 23.9987 11.94C24.0092 14.0395 23.4687 16.1051 22.431 17.9304C21.3934 19.7557 19.8951 21.2768 18.0856 22.3417C16.2762 23.4067 14.2189 23.9783 12.1195 23.9994C10.02 24.0205 7.95169 23.4904 6.1212 22.462C4.29071 21.4336 2.76208 19.9429 1.68798 18.1389C1.61057 18.018 1.55824 17.8827 1.53411 17.7412C1.50998 17.5997 1.51453 17.4548 1.5475 17.315C1.58048 17.1753 1.64119 17.0436 1.72604 16.9278C1.81089 16.812 1.91815 16.7145 2.04145 16.6409C2.16474 16.5674 2.30156 16.5194 2.44377 16.4997C2.58599 16.4801 2.73069 16.4893 2.8693 16.5266C3.00791 16.564 3.13759 16.6289 3.25065 16.7174C3.3637 16.8059 3.45782 16.9161 3.52741 17.0417C4.42965 18.5574 5.72206 19.8031 7.26982 20.6491C8.81757 21.4951 10.564 21.9102 12.3269 21.8513C14.0897 21.7923 15.8045 21.2614 17.2923 20.3139C18.7801 19.3665 19.9864 18.0371 20.7853 16.4646C21.5843 14.8921 21.9467 13.1339 21.8346 11.3736C21.7226 9.61333 21.1403 7.91534 20.1485 6.45676C19.1566 4.99819 17.7915 3.83248 16.1957 3.08124C14.5998 2.32999 12.8315 2.02073 11.0754 2.18571C10.7979 2.20205 10.5249 2.10991 10.3141 1.92874C10.1033 1.74757 9.97114 1.49156 9.94555 1.21476C9.91996 0.937973 10.003 0.662072 10.177 0.445324C10.351 0.228576 10.6025 0.0879503 10.8783 0.0531429M10.46 7.41257C9.32856 6.83314 7.7377 7.52743 7.7377 8.97771V15.0257C7.7377 16.476 9.33027 17.1686 10.46 16.5891L16.3588 13.5651C17.6617 12.8966 17.6617 11.1051 16.3588 10.4383L10.46 7.41257ZM7.03141 3.48686C7.26888 3.33947 7.43936 3.10514 7.50648 2.83383C7.5736 2.56252 7.53205 2.27573 7.3907 2.03462C7.24935 1.79352 7.01938 1.61719 6.74985 1.54325C6.48032 1.46932 6.19257 1.50362 5.94798 1.63886C4.73964 2.34441 3.66401 3.25585 2.7697 4.332C2.67563 4.43953 2.60402 4.56478 2.55907 4.70039C2.51412 4.836 2.49675 4.97923 2.50798 5.12166C2.5192 5.26408 2.5588 5.40282 2.62444 5.52972C2.69008 5.65662 2.78043 5.7691 2.89018 5.86056C2.99993 5.95202 3.12687 6.02061 3.26352 6.06229C3.40017 6.10397 3.54378 6.1179 3.68589 6.10326C3.82801 6.08861 3.96576 6.0457 4.09104 5.97704C4.21633 5.90837 4.32661 5.81534 4.41541 5.70343C5.15211 4.81942 6.03667 4.07001 7.0297 3.48857M2.46627 9.49371C2.5381 9.21865 2.49773 8.92631 2.35402 8.68101C2.21032 8.43571 1.97505 8.25755 1.69998 8.18571C1.42492 8.11388 1.13258 8.15425 0.887281 8.29796C0.641983 8.44167 0.463819 8.67693 0.391984 8.952C0.0362874 10.306 -0.0797481 11.7117 0.0491264 13.1057C0.0619585 13.2459 0.102267 13.3821 0.167751 13.5067C0.233236 13.6312 0.322613 13.7417 0.43078 13.8317C0.538947 13.9217 0.663785 13.9895 0.798168 14.0313C0.93255 14.0731 1.07384 14.088 1.21398 14.0751C1.35412 14.0623 1.49036 14.022 1.61492 13.9565C1.73948 13.891 1.84993 13.8017 1.93995 13.6935C2.02997 13.5853 2.0978 13.4605 2.13957 13.3261C2.18135 13.1917 2.19624 13.0504 2.18341 12.9103C2.07917 11.7636 2.17488 10.6076 2.46627 9.49371Z" fill="#93DCEC"/>
</g>
<defs>
<clipPath id="clip0_286_93">
<rect width="24" height="24" fill="white"/>
</clipPath>
</defs>
</svg>
